# xmcd
#
# Track frame offsets: 
#        150
#        11407
#        24950
#        36672
#        49177
#        63452
#        78927
#        94492
#        112520
#        129447
#        143192
#        156652
#        170312
#        186795
#        200260
#        213372
#
# Disc length: 3170 seconds
#
# Revision: 0
# Processed by: cddbd v1.5.2PL0 Copyright (c) Steve Scherf et al.
# Submitted via: ExactAudioCopy v0.99pb5
#
DISCID=d60c6010
DTITLE=Various Artist - blue-eyed-soul Forever Best
DYEAR=1999
DGENRE=Pop
TTITLE0=The Young Rascals - Groovin'
TTITLE1=The Rascals - People Got To Be Free
TTITLE2=Shadows Of Knight - Gloria
TTITLE3=Shadows Of Knight - Oh Yeah
TTITLE4=Sonny &Cher - I Got You Babe
TTITLE5=Sonny &Cher - The Beat Goes On
TTITLE6=Daryl Hall and John Oates - She's Gone
TTITLE7=Daryl Hall and John Oates - Fall In Philadelphia
TTITLE8=The J. Geils Band - Looking For A Love
TTITLE9=The J. Geils Band - Where Did Our Love Go
TTITLE10=Vanilla Fudge - You Keep Me Hangin' On
TTITLE11=The Inmates - Dirty Water
TTITLE12=Fotomaker - Where Have You Been All My Life
TTITLE13=Don Harrison Band - Sixteen Tons
TTITLE14=The Idea Of March - Vehicle
TTITLE15=Joe Cocker - A Whiter Shade Of Pale
EXTD=
EXTT0=
EXTT1=
EXTT2=
EXTT3=
EXTT4=
EXTT5=
EXTT6=
EXTT7=
EXTT8=
EXTT9=
EXTT10=
EXTT11=
EXTT12=
EXTT13=
EXTT14=
EXTT15=
PLAYORDER=
